PathFileType	4	(X/Y/Z)	Kaydara	
DataRate	CameraRate	NumFrames	NumMarkers	Units	OrigDataRate	OrigDataStartFrame	OrigNumFrames	
240.00	240.00	4	72	mm	240.00	45	355	
Frame#	Time	Hips			RightUpLeg			RightLeg			RightFoot			RightFoot_End			LeftUpLeg			LeftLeg			LeftFoot			LeftFoot_End			Spine			Spine1			Spine2			Spine3			Neck			Head			Head_End			RightShoulder			RightArm			RightForeArm			RightHand			RightHandThumb1			RightHandThumb2			RightHandThumb3			RightHandThumb3_End			RightInHandIndex			RightHandIndex1			RightHandIndex2			RightHandIndex3			RightHandIndex3_End			RightInHandMiddle			RightHandMiddle1			RightHandMiddle2			RightHandMiddle3			RightHandMiddle3_End			RightInHandRing			RightHandRing1			RightHandRing2			RightHandRing3			RightHandRing3_End			RightInHandPinky			RightHandPinky1			RightHandPinky2			RightHandPinky3			RightHandPinky3_End			LeftShoulder			LeftArm			LeftForeArm			LeftHand			LeftHandThumb1			LeftHandThumb2			LeftHandThumb3			LeftHandThumb3_End			LeftInHandIndex			LeftHandIndex1			LeftHandIndex2			LeftHandIndex3			LeftHandIndex3_End			LeftInHandMiddle			LeftHandMiddle1			LeftHandMiddle2			LeftHandMiddle3			LeftHandMiddle3_End			LeftInHandRing			LeftHandRing1			LeftHandRing2			LeftHandRing3			LeftHandRing3_End			LeftInHandPinky			LeftHandPinky1			LeftHandPinky2			LeftHandPinky3			LeftHandPinky3_End			
		X1	Y1	Z1	X2	Y2	Z2	X3	Y3	Z3	X4	Y4	Z4	X5	Y5	Z5	X6	Y6	Z6	X7	Y7	Z7	X8	Y8	Z8	X9	Y9	Z9	X10	Y10	Z10	X11	Y11	Z11	X12	Y12	Z12	X13	Y13	Z13	X14	Y14	Z14	X15	Y15	Z15	X16	Y16	Z16	X17	Y17	Z17	X18	Y18	Z18	X19	Y19	Z19	X20	Y20	Z20	X21	Y21	Z21	X22	Y22	Z22	X23	Y23	Z23	X24	Y24	Z24	X25	Y25	Z25	X26	Y26	Z26	X27	Y27	Z27	X28	Y28	Z28	X29	Y29	Z29	X30	Y30	Z30	X31	Y31	Z31	X32	Y32	Z32	X33	Y33	Z33	X34	Y34	Z34	X35	Y35	Z35	X36	Y36	Z36	X37	Y37	Z37	X38	Y38	Z38	X39	Y39	Z39	X40	Y40	Z40	X41	Y41	Z41	X42	Y42	Z42	X43	Y43	Z43	X44	Y44	Z44	X45	Y45	Z45	X46	Y46	Z46	X47	Y47	Z47	X48	Y48	Z48	X49	Y49	Z49	X50	Y50	Z50	X51	Y51	Z51	X52	Y52	Z52	X53	Y53	Z53	X54	Y54	Z54	X55	Y55	Z55	X56	Y56	Z56	X57	Y57	Z57	X58	Y58	Z58	X59	Y59	Z59	X60	Y60	Z60	X61	Y61	Z61	X62	Y62	Z62	X63	Y63	Z63	X64	Y64	Z64	X65	Y65	Z65	X66	Y66	Z66	X67	Y67	Z67	X68	Y68	Z68	X69	Y69	Z69	X70	Y70	Z70	X71	Y71	Z71	X72	Y72	Z72	

45	0.183	1921.0129	906.651	56.2195	2004.5088143723935	893.8924214004422	3.848987173148715	1922.7227934811929	493.8696288505795	-90.6098065540794	1896.40527542379	107.2147606538532	-159.6507812021014	1821.337331671943	32.321379301415014	-0.5965097959151617	1846.8578472784395	891.1160959609216	120.24456143104901	1780.6131733699704	487.8273221525669	212.90795341640026	1742.522002492539	56.32795026544661	297.6775039511509	1607.9178518686474	-16.56514658683283	182.66875380163057	1876.6753295086962	1032.8506063837096	5.345416818908269	1827.6611193408614	1098.8182323484004	-46.062864186782576	1771.067801081564	1160.5142952323613	-102.42838470758375	1711.0326594924868	1210.2196697078164	-160.47447558389072	1646.4974544843565	1263.6445415385483	-221.81533180201245	1586.4710287943055	1312.1406940304673	-276.8258460596654	1469.3150927115519	1407.5808608609073	-328.8239079607188	1691.7316100891012	1248.46217307758	-223.2953789810582	1752.7464495355443	1238.487853198693	-336.837362542694	1765.770901114213	960.8925688868969	-327.90476900557576	1824.3594342142023	718.5496329985186	-383.2780127573873	1827.2782690121103	698.9991643878174	-394.39329312953987	1816.8902287613919	685.8126510696527	-404.83038274726573	1810.358515833473	675.2510594662829	-410.8191159298708	1805.5143032272867	665.2670523562801	-414.71694108357036	1831.7342301801516	690.7591276000336	-390.63883081586164	1838.3783705748633	649.691420223588	-397.95208308530016	1834.0827042599885	629.1500315815734	-404.04041467391716	1825.428415176435	625.1009871874858	-408.8488167932829	1814.229093660819	627.6325334371893	-413.5189683053558	1832.9897738686277	688.8212665106479	-386.9513018311952	1840.1519434129477	647.7145744298599	-392.089552824125	1835.5974918438205	625.1873839156164	-398.22409727446217	1825.220204603578	620.248422878658	-403.78098945673094	1812.9971220276004	622.9921836128453	-408.7722338201121	1833.8037492352414	688.401350605929	-384.1423833888294	1841.211354692033	650.9079720350679	-386.25904027016844	1837.365238232756	631.2241315555851	-391.07774156975347	1827.421123687522	626.4340823423231	-396.15730296409737	1815.9594279416983	629.0015835514561	-400.7174055189246	1833.7893731226375	689.8854424102633	-380.82742223227325	1840.9006084075984	656.0669001045558	-380.670290702243	1837.9805275611254	640.3925088557612	-383.6957757722408	1830.804523543884	636.9410529911481	-386.9978105684918	1820.6957997207685	639.2398555204726	-390.8053769985607	1643.3873988574885	1243.90912959826	-178.03563472069544	1575.358103862382	1178.959120017419	-82.15390639876546	1694.4717184255135	992.8955331099166	-208.91755213213085	1861.063673851197	809.1963191590513	-325.9563313600764	1846.543514587842	799.458237323824	-346.5530493324269	1841.791150932958	779.7105210551056	-381.33519879872665	1838.9538245221838	763.9695281775714	-405.7882002944258	1836.9924401088297	749.1456799271027	-426.37097675414276	1845.807081888436	791.5697751514323	-348.27480390855237	1828.9934558773202	756.674990321181	-387.54959097643734	1823.1525822685574	731.6765535840335	-420.19581066078035	1823.6577500152757	720.0701804985487	-440.17375783032355	1826.866035058874	713.1179715105031	-456.49486183689544	1847.955179551115	787.3414361154784	-347.7879253906776	1832.7159085582452	751.0192103177143	-385.83050773099643	1826.6876423675778	723.2953195060302	-421.26902838844256	1827.4628202095857	709.0788277146963	-445.2829063671565	1831.0538272319172	701.3679029117267	-463.0979940131976	1849.8421011420467	785.2318965102834	-346.39707761404	1837.6478282528806	750.8115869556755	-379.1528464277626	1832.7711725276993	726.2492413358741	-409.7926492257246	1833.7194266908073	712.3249071724468	-432.82394922268907	1837.1909153068782	704.9745246219907	-449.5120665718188	1852.9747592971896	783.9113819914	-344.0078952560832	1843.5155556172435	751.473359047538	-372.4412540661134	1840.253234234123	731.3338749715796	-396.44619604928437	1841.2557993458606	720.9496322334531	-412.9888126266212	1844.5099064328806	714.3073015614932	-427.62414481700023
46	0.188	1921.0129	906.651	56.2195	2004.4117186135759	893.8471171108841	3.8143932907580735	1922.6467966524337	493.80894990640707	-90.57723771715207	1896.5832148014524	107.20519862680366	-159.71379399899905	1821.5140597033344	32.299478480230285	-0.6662420977555894	1846.9463777185551	891.1580438529093	120.2776800301334	1780.7355027816952	487.86317300907086	212.9334471769298	1742.5863750387662	56.365004032199266	297.6376803863983	1608.0074302709536	-16.5533069574051	182.61979165632766	1876.7159683665993	1032.8671499340328	5.353508805440405	1827.544346726726	1098.669403780577	-46.088904398276945	1770.933758054286	1160.3421043096894	-102.464211493202	1710.9318258034157	1210.0824046734583	-160.51407439257474	1646.4303330019707	1263.5434670804184	-221.8580933210445	1586.4330799838172	1312.0715332543627	-276.8710373078323	1469.2502477239336	1407.4790394079223	-328.8625948845291	1691.6607879018952	1248.3625387643917	-223.3253970204415	1752.7245476030753	1238.4857026721454	-336.87210525357375	1765.042907156619	961.1753864035172	-327.7592553946874	1823.3987615897563	719.2262501192732	-383.70586869927223	1826.3415582873208	699.8067279293338	-394.87461739305076	1815.940278328727	686.693404166757	-405.395960469402	1809.3915979481744	676.1733648909122	-411.44936759856654	1804.52660758344	666.2159374156478	-415.40624016413506	1830.7734071910113	691.5498727705827	-391.1465467863512	1837.3822185805398	650.6002970051636	-398.6042038098799	1833.0541251132672	630.1147801314897	-404.7931535963832	1824.384424610821	626.0845217373858	-409.6480887789803	1813.1755516015705	628.6208586525547	-414.3459455060919	1832.00873365212	689.5810289756456	-387.4703140247011	1839.125507477157	648.5728097289468	-392.75552735951277	1834.5331092457886	626.1020839636012	-399.0008894659801	1824.1359990250564	621.1836246397934	-404.61441200077815	1811.9018661996927	623.9315753691883	-409.63620942663573	1832.809349980815	689.1364403761876	-384.66576112834707	1840.1647368283964	651.71056440703	-386.91810931026816	1836.282995681802	632.0711755336506	-391.83421102762287	1826.3184081414677	627.2983752307393	-396.96882890304903	1814.8456812823729	629.868618648553	-401.5578652613631	1832.7804219831844	690.5868654015973	-381.3511221398215	1839.8348570776445	656.810288041813	-381.3189126481798	1836.8825025410863	641.1637688563553	-384.42307138868773	1829.6897534669476	637.7211555915849	-387.7655902748653	1819.5702118200543	640.0202396600282	-391.5989739748083	1643.30098925755	1243.7816287345752	-178.08906209250236	1575.2814887184954	1178.862806873905	-82.22852592288788	1694.309757591676	992.9097425816317	-209.1262110779586	1862.2938400916864	809.8196694303881	-326.5373214903675	1847.7901545372154	800.1730156379305	-347.17115489639156	1843.0437792294297	780.4433930786166	-381.9328436535136	1840.2012013717979	764.7085212184387	-406.36257765571645	1838.2273816986628	749.8842335759658	-426.9182396250767	1847.0194574330974	792.2765792935579	-348.86732556731374	1830.1523958576242	757.4555884774799	-388.111815480938	1824.2850598571772	732.4718562004282	-420.7191036346148	1824.7914873070947	720.8540568608003	-440.6727480931878	1828.0127543647127	713.8785191299252	-456.9736720924629	1849.144300996836	788.0263079481059	-348.3561229010003	1833.840331666258	751.7642066072218	-386.3560031164849	1827.7803109025022	724.0531769365679	-421.74890707139195	1828.555620692038	709.8213790203296	-445.7319616714367	1832.1601639938071	702.0841850992812	-463.5242364674799	1851.015981444601	785.8997355553239	-346.9489796124609	1838.749960560689	751.5195280468831	-379.6526720544673	1833.8427838047685	726.9650484995111	-410.24957879363734	1834.7896609143374	713.0241704302247	-433.24948268691486	1838.2731585455776	705.6482437457724	-449.9153601327468	1854.1340433563385	784.5547364976605	-344.5409766547694	1844.59941063993	752.1395813071365	-372.9153526957379	1841.3085333903052	732.0009938870737	-396.8812768148678	1842.3081004871656	721.6020714962734	-413.3987309599176	1845.5716999725253	714.9356112511324	-428.01306426996524
47	0.192	1921.0129	906.651	56.2195	2004.318820003413	893.8047886388697	3.786238140028768	1922.5830019276973	493.7490156542567	-90.53275257861006	1896.7646679864583	107.1971449664491	-159.7646490281652	1821.6961948283204	32.27803019157333	-0.7234381409207078	1847.0298897459813	891.1966304272793	120.3039414798159	1780.8482355015592	487.894449446896	212.94292686052418	1742.633831462642	56.39796671373531	297.57994613680694	1608.0796569429444	-16.545746332841833	182.55363808373718	1876.7601911227941	1032.885347579118	5.363252097121029	1827.271893003045	1098.3546207317286	-46.160629265843774	1770.906756037056	1160.3088747045751	-102.49160321965675	1710.9408307472822	1210.08584960955	-160.54674639935553	1646.4763116587976	1263.5851662944071	-221.89573670835537	1586.5114667457547	1312.1472185870773	-276.9129962018829	1469.3061360747388	1407.5230997070285	-328.90746385109975	1691.7037206312893	1248.4068501992335	-223.34840266580213	1752.8184372439637	1238.6287739435015	-336.90044995984414	1764.4078968226618	961.6223186181296	-327.5410435371315	1822.6206420160927	720.0734815552933	-383.99625051720693	1825.5809104205287	700.7850421734203	-395.21907178029255	1815.1615229915428	687.7488453533274	-405.8228799357892	1808.5927718841742	677.2733302665914	-411.939404573516	1803.7046620864612	667.3451545742156	-415.9537631462181	1829.9888964926417	692.5118993204653	-391.5164831156986	1836.554691353247	651.6836455870255	-399.11629665287876	1832.1897915865943	631.2578481214338	-405.40352563195177	1823.5028573223537	627.2492262643152	-410.30354239870445	1812.283527870188	629.7930239439494	-415.0279048919839	1831.205098524388	690.5126633951656	-387.85074332483924	1838.2695686433376	649.6063467549051	-393.28029284985956	1833.634618801235	627.1963557346069	-399.6338221795573	1823.2155662580954	622.3018707693054	-405.3021763383559	1810.9694333712073	625.0569500782012	-410.35318983809816	1831.9933143001613	690.0437236342166	-385.0500520464553	1839.2910970607852	652.6886622321399	-387.4353183080203	1835.3699008573303	633.0975103940996	-392.44641250688653	1825.3828947240079	628.3453441679413	-397.63429855283636	1813.8982911174398	630.9211081010467	-402.2509874847171	1831.9512375031998	691.4608724870802	-381.7351788708216	1838.9447632424396	657.7294920231102	-381.82501875367865	1835.9573794339187	642.1139669477825	-385.0057819117811	1828.7466182986223	638.6827063722474	-388.38741393508565	1818.6155964538655	640.9845562957058	-392.2454400602531	1643.3247374155094	1243.794261474782	-178.1380520819135	1575.3134910956048	1178.9177228180708	-82.29883170891883	1694.1393483517782	993.0462722364324	-209.33943224979453	1862.0481923285283	810.2051947946521	-327.19449376998136	1847.5594338562987	800.6453363475335	-347.85852793937556	1842.8139124430545	780.9308254989206	-382.5979286212452	1839.9627809872259	765.2004745626839	-407.003920085833	1837.9740122815583	750.3748222670655	-427.532751529381	1846.7557561053268	792.7421268331482	-349.53097589715827	1829.8339797057256	757.9918106935363	-388.7419675092917	1823.936948496456	733.0210527044715	-421.31002789658396	1824.4412157456202	721.3908493142221	-441.2398429567516	1827.671681170769	714.3912369038571	-457.52142636104054	1848.8580282133294	788.4713491839328	-348.99782100665533	1833.488482986477	752.2670996833614	-386.9531579461761	1827.39327189684	724.5672442747408	-422.3004473197329	1828.1646300299076	710.3190550229123	-446.2534080225199	1831.7785920955885	702.554822925554	-464.0238623038463	1850.7150083995111	786.3288287120594	-347.57612330505606	1838.3769944681653	751.9876221878507	-380.2275605970719	1833.4363974671667	727.4397466158451	-410.7819080016378	1834.3780098563402	713.4813861988731	-433.75129555147294	1837.869669280372	706.0792440336595	-450.3959513709379	1853.8189341771601	784.9607019911898	-345.1515185795963	1844.209016932693	752.5682345883833	-373.4680622390574	1840.8874084726858	732.4298590214478	-397.39576491300033	1841.8812139789138	722.0157296940203	-413.8889531908043	1845.1509385764266	715.3246373216026	-428.4833347090992
48	0.196	1921.0129	906.651	56.2195	2004.2276982844726	893.7646136097328	3.7623528791924943	1922.5204718602847	493.6900742930713	-90.47551145335875	1896.9398871566623	107.19082809128622	-159.80251234831638	1821.873919758568	32.25740769599279	-0.7672271521699314	1847.111257282952	891.2328327355693	120.32552792110751	1780.9565679386446	487.92362929947035	212.94681855908792	1742.6775304617622	56.42910858003918	297.52040749215996	1608.145526218176	-16.54056251477292	182.48908925161427	1876.8060289414072	1032.9045342332263	5.374657471598589	1826.9703223609356	1098.0088415443608	-46.2430594454477	1771.1149486950962	1160.5525121369005	-102.47083063296311	1711.1864059296777	1210.3675931604716	-160.53178487951854	1646.7600487416612	1263.9059474083508	-221.88669289376867	1586.8285456964848	1312.5021722961055	-276.9094737184443	1469.6073605902338	1407.8494149374542	-328.9178750538037	1691.9835199507097	1248.7290914322568	-223.32437339873618	1753.152104781903	1239.0533060561002	-336.8835503873119	1764.0890913341334	962.3444621087846	-327.2347966725224	1822.2775669634339	721.197779285741	-384.1386820406643	1825.2510844011342	702.0398542034318	-395.4154637875915	1814.8118056715318	689.0815456392265	-406.0976062722605	1808.2223747373523	678.6512515946371	-412.27416694888143	1803.311184816997	668.7530539121598	-416.34326976427127	1829.6370010636476	693.7508855160304	-391.73795094468596	1836.1588521000492	653.0447897115405	-399.4769138824013	1831.757027566126	632.6797550028733	-405.8585311180427	1823.0526313462583	628.6934707769675	-410.8006238361223	1811.8225486893612	631.2453423659515	-415.5486094482023	1830.8358647966945	691.7217087603724	-388.08216906952697	1837.8480949448417	650.9183509336526	-393.65283061614264	1833.170703401553	628.5702904071163	-400.11021863570636	1822.7295474059213	623.7006526063593	-405.8297479483164	1810.4711468760452	626.4635477416141	-410.9068084431199	1831.6129634793913	691.2287097571372	-385.28505234701976	1838.854310756778	653.9456559367499	-387.80014819720213	1834.8940010347053	634.4038396952028	-392.9024215382782	1824.8845501365304	629.6731789452978	-398.1400155720742	1813.3878800767884	632.2551230474302	-402.7813608796825	1831.559258863703	692.6129221490257	-381.9695754182837	1838.49387667142	658.9280313874362	-382.1784555229987	1835.4721123198428	643.3444649649593	-385.4326873448556	1828.2435018170543	639.9252322142166	-388.85079865482436	1818.1009390698975	642.2304532677871	-392.7307918153186	1643.5863906326213	1244.0866393464287	-178.14009587216543	1575.5810787825446	1179.2586045169048	-82.3225758858655	1694.071077258029	993.4321806653777	-209.5152600545112	1860.3367429103275	810.4484824706595	-327.8447688611588	1845.858941165487	800.9690303267342	-348.5327006061879	1841.1082734530655	781.2681425790194	-383.2503601110328	1838.2452554305773	765.5420855679179	-407.63380370581507	1836.2394830550238	750.7155712222878	-428.1374974100016	1845.0253899678323	793.061029809425	-350.1832437874933	1828.0488137573755	758.3790758361722	-389.359173695089	1822.119681836266	733.4214388614953	-421.88972151118253	1822.618321113745	721.7794097766359	-441.79776910339666	1825.8537857554513	714.7565278316996	-458.06239198041624	1847.1072828276588	788.7721091608747	-349.6305394390834	1831.6732663138946	752.6247317799314	-387.54110704792754	1825.540524734285	724.9365371079366	-422.84498013670554	1826.3038867165528	710.6728054028698	-446.7704918106711	1829.9227387675865	702.8824919073354	-464.5218052416318	1848.9511415804586	786.6153545269237	-348.196002355814	1836.5435810783042	752.3137241144219	-380.7964044061942	1831.5678181525332	727.773204449766	-411.31043930215606	1832.5004166822096	713.7983564140379	-434.25203755349554	1835.9960557428526	706.3709831899185	-450.8780751451158	1852.0425240909763	785.2262475446438	-345.7570019502154	1842.3606466715978	752.8582753840483	-374.01810910839737	1839.007349675339	732.7212267374767	-397.9099071843955	1839.9928743374744	722.2928624416063	-414.38107052493945	1843.2651412156315	715.5781524149443	-428.95794855326295
